<?xml version="1.0" encoding="utf-8"?>
<!-- Generator: Adobe Illustrator 27.9.0, SVG Export Plug-In . SVG Version: 6.00 Build 0)  -->
<svg version="1.1" id="Слой_1" xmlns="http://www.w3.org/2000/svg" xmlns:xlink="http://www.w3.org/1999/xlink" x="0px" y="0px"
	 width="104px" height="37px" viewBox="0 0 104 37" style="enable-background:new 0 0 104 37;" xml:space="preserve">
<style type="text/css">
	.st0{fill:#E6007E;}
	.st1{fill:#FFFFFF;}
</style>
<rect x="-2.8" y="46.3" class="st0" width="113" height="37"/>
<g>
	<path class="st1" d="M23,8.6c-0.4,0-0.8,0-1.2,0s-0.8,0-1.1,0l-6,15.7L8.2,8.5c-0.7,0-1.5,0-2.4,0.1c-0.9,0-1.8,0-2.7,0
		c-0.5,0-1,0-1.5,0c-0.5,0-1,0-1.3-0.1v0.6c0.7,0,1.2,0.1,1.5,0.3c0.4,0.1,0.6,0.4,0.7,0.8c0.1,0.4,0.2,1,0.2,1.7v14.6
		c0,1-0.1,1.9-0.2,2.5c-0.1,0.6-0.3,1-0.7,1.3c-0.3,0.3-0.9,0.4-1.6,0.6v0.6c0.3,0,0.8-0.1,1.3-0.1c0.5,0,1,0,1.5,0
		c0.6,0,1.2,0,1.9,0c0.7,0,1.2,0,1.6,0.1v-0.6c-1-0.1-1.7-0.3-2.1-0.6C4,30,3.7,29.5,3.6,28.9c-0.1-0.6-0.2-1.6-0.2-2.8V10.6
		l8.7,20.9h0.5l7.8-20.4V28c0,0.8-0.1,1.4-0.2,1.7c-0.1,0.4-0.4,0.6-0.8,0.8c-0.4,0.1-0.9,0.2-1.7,0.3v0.6c0.6,0,1.3-0.1,2.2-0.1
		c0.9,0,1.9,0,2.9,0c1,0,1.9,0,2.8,0c0.9,0,1.7,0,2.3,0.1v-0.6c-0.7,0-1.2-0.1-1.6-0.3s-0.6-0.4-0.7-0.8c-0.1-0.4-0.2-1-0.2-1.7
		V11.9c0-0.8,0.1-1.4,0.2-1.7c0.1-0.4,0.4-0.6,0.7-0.8c0.3-0.2,0.9-0.2,1.6-0.3V8.5c-0.6,0-1.4,0-2.3,0.1C24.9,8.6,23.9,8.6,23,8.6z
		"/>
	<path class="st1" d="M50.9,8.6c-0.6,0-1.2,0-1.9,0c-0.7,0-1.2,0-1.6-0.1v0.6c1,0.1,1.6,0.3,2.1,0.6c0.5,0.3,0.7,0.7,0.9,1.4
		c0.1,0.6,0.2,1.5,0.2,2.7V24L38,8.5c-0.4,0-0.8,0-1.3,0.1c-0.5,0-1,0-1.5,0c-0.5,0-1,0-1.5,0c-0.5,0-1,0-1.3-0.1v0.6
		c0.7,0,1.2,0.1,1.5,0.3c0.4,0.1,0.6,0.4,0.7,0.8c0.1,0.4,0.2,1,0.2,1.7v14.6c0,1-0.1,1.9-0.2,2.5c-0.1,0.6-0.3,1-0.7,1.3
		c-0.3,0.3-0.9,0.4-1.6,0.6v0.6c0.3,0,0.8-0.1,1.3-0.1c0.5,0,1,0,1.5,0c0.6,0,1.2,0,1.9,0c0.7,0,1.2,0,1.6,0.1v-0.6
		c-1-0.1-1.7-0.3-2.1-0.6c-0.4-0.3-0.7-0.7-0.8-1.4c-0.1-0.6-0.2-1.6-0.2-2.8V13.7l14.1,17.8c0.3,0,0.6,0,0.8,0c0.3,0,0.6,0,0.8,0
		V13.4c0-1.1,0.1-1.9,0.2-2.5c0.1-0.6,0.4-1,0.7-1.3c0.3-0.3,0.9-0.5,1.6-0.6V8.5c-0.3,0-0.8,0-1.3,0.1C51.9,8.6,51.4,8.6,50.9,8.6z
		"/>
	<path class="st1" d="M78.1,8.5c-1,0-2,0-3.2,0.1c-1.2,0-2.4,0-3.6,0c-1.2,0-2.2,0-3.2,0c-1,0-2,0-3.2,0c-1.2,0-2.4,0-3.6,0
		c-1.2,0-2.2,0-3.2-0.1c0.1,1.1,0.1,2.2,0.2,3.2c0,1,0.1,1.8,0.1,2.3c0,0.5,0,0.9,0,1.4c0,0.4,0,0.8-0.1,1.1H59
		c0.4-1.8,0.8-3.3,1.4-4.3c0.5-1.1,1.1-1.8,1.9-2.2c0.7-0.5,1.6-0.7,2.6-0.7h0.7v18.5c0,0.9-0.1,1.5-0.3,1.9c-0.2,0.4-0.5,0.7-1,0.9
		c-0.5,0.1-1.2,0.2-2.2,0.2v0.6c0.6,0,1.5,0,2.6-0.1c1.1,0,2.2,0,3.4,0c1.2,0,2.4,0,3.5,0c1.1,0,2,0,2.7,0.1v-0.6
		c-1,0-1.7-0.1-2.2-0.2c-0.5-0.2-0.8-0.4-1-0.9c-0.2-0.4-0.3-1.1-0.3-1.9V9.3h0.7c1,0,1.9,0.2,2.6,0.7c0.7,0.4,1.4,1.2,1.9,2.2
		c0.5,1.1,1,2.5,1.3,4.3H78c0-0.3,0-0.7-0.1-1.1c0-0.4,0-0.9,0-1.4c0-0.5,0-1.3,0-2.3C77.9,10.7,78,9.6,78.1,8.5z"/>
	<path class="st1" d="M102.5,8.6c-0.5,0-1,0-1.5,0c-0.6,0-1.2,0-1.9,0c-0.7,0-1.2,0-1.6-0.1v0.6c1,0.1,1.6,0.3,2.1,0.6
		c0.5,0.3,0.7,0.7,0.9,1.4c0.1,0.6,0.2,1.5,0.2,2.7V24L88.1,8.5c-0.4,0-0.8,0-1.3,0.1c-0.5,0-1,0-1.5,0c-0.5,0-1,0-1.5,0
		c-0.5,0-1,0-1.3-0.1v0.6c0.7,0,1.2,0.1,1.5,0.3c0.4,0.1,0.6,0.4,0.7,0.8c0.1,0.4,0.2,1,0.2,1.7v14.6c0,1-0.1,1.9-0.2,2.5
		c-0.1,0.6-0.3,1-0.7,1.3c-0.3,0.3-0.9,0.4-1.6,0.6v0.6c0.3,0,0.8-0.1,1.3-0.1c0.5,0,1,0,1.5,0c0.6,0,1.2,0,1.9,0
		c0.7,0,1.2,0,1.6,0.1v-0.6c-1-0.1-1.7-0.3-2.1-0.6c-0.4-0.3-0.7-0.7-0.8-1.4c-0.1-0.6-0.2-1.6-0.2-2.8V13.7l14.1,17.8
		c0.3,0,0.6,0,0.8,0c0.3,0,0.6,0,0.8,0V13.4c0-1.1,0.1-1.9,0.2-2.5c0.1-0.6,0.4-1,0.7-1.3c0.3-0.3,0.9-0.5,1.6-0.6V8.5
		C103.4,8.5,103,8.5,102.5,8.6z"/>
</g>
</svg>
