<?xml version="1.0" encoding="utf-8"?>
<!-- Generator: Adobe Illustrator 27.9.0, SVG Export Plug-In . SVG Version: 6.00 Build 0)  -->
<svg version="1.1" id="Слой_1" xmlns="http://www.w3.org/2000/svg" xmlns:xlink="http://www.w3.org/1999/xlink" x="0px" y="0px"
	 width="27px" height="27px" viewBox="0 0 27 27" style="enable-background:new 0 0 27 27;" xml:space="preserve">
<style type="text/css">
	.st0{fill:#FFFFFF;}
</style>
<path class="st0" d="M18.8,9.5c0.7,0,1.2-0.6,1.2-1.2C20,7.6,19.4,7,18.8,7s-1.2,0.6-1.2,1.2C17.5,8.9,18.1,9.5,18.8,9.5z M8.5,13.5
	c0,2.8,2.2,5,5,5s5-2.2,5-5s-2.2-5-5-5S8.5,10.7,8.5,13.5z M10.5,13.5c0-1.7,1.3-3,3-3c1.7,0,3,1.3,3,3c0,1.7-1.3,3-3,3
	C11.8,16.5,10.5,15.2,10.5,13.5z M3.5,9.3v8.4c0,3.2,2.6,5.8,5.8,5.8h8.4c3.2,0,5.8-2.6,5.8-5.8V9.3c0-3.2-2.6-5.8-5.8-5.8H9.3
	C6.1,3.5,3.5,6.1,3.5,9.3z M5.5,9.1c0-2,1.6-3.6,3.6-3.6h8.8c2,0,3.6,1.6,3.6,3.6v8.8c0,2-1.6,3.6-3.6,3.6H9.1c-2,0-3.6-1.6-3.6-3.6
	V9.1z"/>
</svg>
