<svg width="20" height="20" viewBox="0 0 20 20" fill="none" xmlns="http://www.w3.org/2000/svg">
<path d="M18.7162 5.01033C18.0749 5.29479 17.3855 5.48703 16.6622 5.57347C17.4004 5.13085 17.9676 4.42999 18.2346 3.59483C17.5435 4.00471 16.7782 4.30233 15.9635 4.46268C15.3112 3.76761 14.3818 3.33334 13.3531 3.33334C11.378 3.33334 9.77661 4.93457 9.77661 6.90964C9.77661 7.18993 9.80828 7.46289 9.86928 7.72468C6.89695 7.57551 4.26166 6.1517 2.49778 3.98794C2.18991 4.51614 2.01355 5.13048 2.01355 5.78592C2.01355 7.02671 2.6449 8.12137 3.60456 8.76276C3.01836 8.74409 2.46684 8.58326 1.9847 8.31539C1.98435 8.33034 1.98435 8.34526 1.98435 8.36034C1.98435 10.0932 3.21715 11.5386 4.8532 11.8672C4.55311 11.9489 4.23715 11.9927 3.91099 11.9927C3.68054 11.9927 3.4565 11.9702 3.23809 11.9285C3.69321 13.3493 5.01398 14.3833 6.57899 14.4121C5.355 15.3714 3.81293 15.9432 2.13731 15.9432C1.84864 15.9432 1.56396 15.9262 1.28418 15.8931C2.8669 16.9078 4.7468 17.5 6.76645 17.5C13.3447 17.5 16.942 12.0504 16.942 7.32433C16.942 7.16929 16.9385 7.01505 16.9316 6.86163C17.6304 6.35739 18.2368 5.72753 18.7162 5.01033Z" fill="white"/>
</svg>
