<svg width="18" height="18" viewBox="0 0 18 18" fill="none" xmlns="http://www.w3.org/2000/svg">
<path d="M0.666504 12.5L0.666504 5.50001C0.666504 2.83068 2.83046 0.666677 5.49984 0.666677H12.4998C15.1692 0.666677 17.3332 2.83068 17.3332 5.50001V12.5C17.3332 15.1694 15.1692 17.3333 12.4998 17.3333H5.49984C2.83046 17.3333 0.666504 15.1694 0.666504 12.5ZM2.33315 12.6667C2.33315 14.3235 3.6763 15.6667 5.33315 15.6667H12.6665C14.3233 15.6667 15.6665 14.3235 15.6665 12.6667V5.33334C15.6665 3.67651 14.3233 2.33334 12.6665 2.33334H5.33315C3.6763 2.33334 2.33315 3.67651 2.33315 5.33334L2.33315 12.6667ZM3.58315 4.62501C3.58315 4.04968 4.04953 3.58334 4.62482 3.58334C5.20012 3.58334 5.66649 4.04968 5.66649 4.62501C5.66649 5.20034 5.20012 5.66668 4.62482 5.66668C4.04953 5.66668 3.58315 5.20034 3.58315 4.62501ZM4.83315 9.00001C4.83315 6.69884 6.69864 4.83334 8.99982 4.83334C11.301 4.83334 13.1665 6.69884 13.1665 9.00001C13.1665 11.3012 11.301 13.1667 8.99982 13.1667C6.69864 13.1667 4.83315 11.3012 4.83315 9.00001ZM6.49982 9.00001C6.49982 10.3808 7.61915 11.5 8.99982 11.5C10.3806 11.5 11.4998 10.3808 11.4998 9.00001C11.4998 7.61926 10.3806 6.50001 8.99982 6.50001C7.61915 6.50001 6.49982 7.61926 6.49982 9.00001Z" fill="white"/>
</svg>