<svg width="97" height="43" viewBox="0 0 97 43" fill="none" xmlns="http://www.w3.org/2000/svg">
<path d="M28.608 12.344V12.984C27.9253 13.0053 27.4133 13.0907 27.072 13.24C26.7307 13.368 26.496 13.624 26.368 14.008C26.2613 14.3707 26.208 14.9467 26.208 15.736V31.608C26.208 32.376 26.2613 32.952 26.368 33.336C26.496 33.72 26.7307 33.976 27.072 34.104C27.4133 34.232 27.9253 34.3173 28.608 34.36V35C28.0107 34.9573 27.2533 34.936 26.336 34.936C25.44 34.9147 24.5227 34.904 23.584 34.904C22.56 34.904 21.6 34.9147 20.704 34.936C19.808 34.936 19.0827 34.9573 18.528 35V34.36C19.2533 34.3173 19.7973 34.232 20.16 34.104C20.544 33.976 20.8 33.72 20.928 33.336C21.056 32.952 21.12 32.376 21.12 31.608V14.296H21.344L13.408 35.032H12.896L4.256 14.424V29.752C4.256 30.9253 4.32 31.832 4.448 32.472C4.576 33.0907 4.85333 33.5387 5.28 33.816C5.728 34.072 6.42133 34.2533 7.36 34.36V35C6.95467 34.9573 6.42133 34.936 5.76 34.936C5.09867 34.9147 4.48 34.904 3.904 34.904C3.41333 34.904 2.912 34.9147 2.4 34.936C1.888 34.936 1.46133 34.9573 1.12 35V34.36C1.80267 34.2533 2.31467 34.072 2.656 33.816C2.99733 33.56 3.22133 33.144 3.328 32.568C3.456 31.9707 3.52 31.16 3.52 30.136V15.736C3.52 14.9467 3.456 14.3707 3.328 14.008C3.22133 13.624 2.98667 13.368 2.624 13.24C2.28267 13.0907 1.78133 13.0053 1.12 12.984V12.344C1.46133 12.3653 1.888 12.3867 2.4 12.408C2.912 12.4293 3.41333 12.44 3.904 12.44C4.82133 12.44 5.71733 12.4293 6.592 12.408C7.488 12.3867 8.27733 12.3653 8.96 12.344L15.68 28.568L14.88 29.304L21.312 12.44C21.6747 12.44 22.048 12.44 22.432 12.44C22.816 12.44 23.2 12.44 23.584 12.44C24.5227 12.44 25.44 12.4293 26.336 12.408C27.2533 12.3867 28.0107 12.3653 28.608 12.344Z" fill="white"/>
<path d="M51.2121 12.344V12.984C50.5295 13.0693 50.0175 13.2507 49.6761 13.528C49.3348 13.784 49.1001 14.2 48.9721 14.776C48.8655 15.352 48.8121 16.1627 48.8121 17.208V35.064C48.5561 35.0427 48.2895 35.032 48.0121 35.032C47.7561 35.032 47.4788 35.0427 47.1801 35.064L33.2921 17.464V29.752C33.2921 30.9253 33.3561 31.832 33.4841 32.472C33.6121 33.0907 33.8895 33.5387 34.3161 33.816C34.7641 34.072 35.4575 34.2533 36.3961 34.36V35C35.9908 34.9573 35.4575 34.936 34.7961 34.936C34.1348 34.9147 33.5161 34.904 32.9401 34.904C32.4495 34.904 31.9481 34.9147 31.4361 34.936C30.9241 34.936 30.4975 34.9573 30.1561 35V34.36C30.8388 34.2533 31.3508 34.072 31.6921 33.816C32.0335 33.56 32.2575 33.144 32.3641 32.568C32.4921 31.9707 32.5561 31.16 32.5561 30.136V15.736C32.5561 14.9467 32.4921 14.3707 32.3641 14.008C32.2575 13.624 32.0228 13.368 31.6601 13.24C31.3188 13.0907 30.8175 13.0053 30.1561 12.984V12.344C30.4975 12.3653 30.9241 12.3867 31.4361 12.408C31.9481 12.4293 32.4495 12.44 32.9401 12.44C33.4521 12.44 33.9428 12.4293 34.4121 12.408C34.8815 12.3867 35.3081 12.3653 35.6921 12.344L48.0761 27.608V17.592C48.0761 16.4187 48.0121 15.5227 47.8841 14.904C47.7561 14.264 47.4681 13.8053 47.0201 13.528C46.5935 13.2507 45.9108 13.0693 44.9721 12.984V12.344C45.3775 12.3653 45.9108 12.3867 46.5721 12.408C47.2335 12.4293 47.8521 12.44 48.4281 12.44C48.9401 12.44 49.4415 12.4293 49.9321 12.408C50.4441 12.3867 50.8708 12.3653 51.2121 12.344Z" fill="white"/>
<path d="M73.1719 12.344C73.0866 13.432 73.0226 14.4773 72.9799 15.48C72.9586 16.4827 72.9479 17.2507 72.9479 17.784C72.9479 18.2533 72.9586 18.7013 72.9799 19.128C73.0013 19.5547 73.0226 19.9173 73.0439 20.216H72.3079C71.9666 18.424 71.5293 17.0053 70.9959 15.96C70.4839 14.9147 69.8653 14.1787 69.1399 13.752C68.4146 13.304 67.5613 13.08 66.5799 13.08H65.8439V31.352C65.8439 32.2053 65.9293 32.8453 66.0999 33.272C66.2919 33.6987 66.6333 33.9867 67.1239 34.136C67.6146 34.264 68.3293 34.3387 69.2679 34.36V35C68.6066 34.9787 67.7213 34.9573 66.6119 34.936C65.5239 34.9147 64.3826 34.904 63.1879 34.904C62.0146 34.904 60.9053 34.9147 59.8599 34.936C58.8146 34.9573 57.9719 34.9787 57.3319 35V34.36C58.2919 34.3387 59.0173 34.264 59.5079 34.136C59.9986 33.9867 60.3293 33.6987 60.4999 33.272C60.6706 32.8453 60.7559 32.2053 60.7559 31.352V13.08H60.0519C59.0706 13.08 58.2173 13.304 57.4919 13.752C56.7666 14.1787 56.1479 14.9147 55.6359 15.96C55.1239 16.984 54.6759 18.4027 54.2919 20.216H53.5559C53.5986 19.9173 53.6199 19.5547 53.6199 19.128C53.6413 18.7013 53.6519 18.2533 53.6519 17.784C53.6519 17.2507 53.6306 16.4827 53.5879 15.48C53.5666 14.4773 53.5133 13.432 53.4279 12.344C54.4093 12.3653 55.4759 12.3867 56.6279 12.408C57.8013 12.4293 58.9746 12.44 60.1479 12.44C61.3213 12.44 62.3773 12.44 63.3159 12.44C64.2759 12.44 65.3319 12.44 66.4839 12.44C67.6573 12.44 68.8306 12.4293 70.0039 12.408C71.1773 12.3867 72.2333 12.3653 73.1719 12.344Z" fill="white"/>
<path d="M96.5813 12.344V12.984C95.8986 13.0693 95.3866 13.2507 95.0453 13.528C94.7039 13.784 94.4693 14.2 94.3413 14.776C94.2346 15.352 94.1813 16.1627 94.1813 17.208V35.064C93.9253 35.0427 93.6586 35.032 93.3813 35.032C93.1253 35.032 92.8479 35.0427 92.5493 35.064L78.6613 17.464V29.752C78.6613 30.9253 78.7253 31.832 78.8533 32.472C78.9813 33.0907 79.2586 33.5387 79.6853 33.816C80.1333 34.072 80.8266 34.2533 81.7653 34.36V35C81.3599 34.9573 80.8266 34.936 80.1653 34.936C79.5039 34.9147 78.8853 34.904 78.3093 34.904C77.8186 34.904 77.3173 34.9147 76.8053 34.936C76.2933 34.936 75.8666 34.9573 75.5253 35V34.36C76.2079 34.2533 76.7199 34.072 77.0613 33.816C77.4026 33.56 77.6266 33.144 77.7333 32.568C77.8613 31.9707 77.9253 31.16 77.9253 30.136V15.736C77.9253 14.9467 77.8613 14.3707 77.7333 14.008C77.6266 13.624 77.3919 13.368 77.0293 13.24C76.6879 13.0907 76.1866 13.0053 75.5253 12.984V12.344C75.8666 12.3653 76.2933 12.3867 76.8053 12.408C77.3173 12.4293 77.8186 12.44 78.3093 12.44C78.8213 12.44 79.3119 12.4293 79.7813 12.408C80.2506 12.3867 80.6773 12.3653 81.0613 12.344L93.4453 27.608V17.592C93.4453 16.4187 93.3813 15.5227 93.2533 14.904C93.1253 14.264 92.8373 13.8053 92.3893 13.528C91.9626 13.2507 91.2799 13.0693 90.3413 12.984V12.344C90.7466 12.3653 91.2799 12.3867 91.9413 12.408C92.6026 12.4293 93.2213 12.44 93.7973 12.44C94.3093 12.44 94.8106 12.4293 95.3013 12.408C95.8133 12.3867 96.2399 12.3653 96.5813 12.344Z" fill="white"/>
</svg>