<?xml version="1.0" encoding="utf-8"?>
<svg version="1.1" xmlns="http://www.w3.org/2000/svg" xmlns:xlink="http://www.w3.org/1999/xlink" x="0px" y="0px"
	 viewBox="0 0 19.8 34" style="enable-background:new 0 0 19.8 34;" xml:space="preserve">
<path d="M3,33.6c-0.4,0-0.8-0.1-1.2-0.3c-0.4-0.2-0.7-0.4-0.9-0.7C0.3,32,0,31.3,0,30.5c0-0.8,0.3-1.5,0.9-2.1l11.9-11.9L0.9,4.6
	C0.6,4,0.6,3.4,0.7,2.8c0.1-0.6,0.5-1.1,0.9-1.6c0.5-0.4,1-0.7,1.7-0.7c0.6-0.1,1.2,0.1,1.8,0.4L19,14.7c0.6,0.6,0.9,1.3,0.9,2.1
	c0,0.8-0.3,1.5-0.9,2.1L5.1,32.6c-0.3,0.3-0.6,0.5-0.9,0.7C3.8,33.5,3.4,33.6,3,33.6z" fill="#483d8b"/>
</svg>
