<?xml version="1.0" encoding="utf-8"?>
<!-- Generator: Adobe Illustrator 27.9.0, SVG Export Plug-In . SVG Version: 6.00 Build 0)  -->
<svg version="1.1" id="Слой_1" xmlns="http://www.w3.org/2000/svg" xmlns:xlink="http://www.w3.org/1999/xlink" x="0px" y="0px"
	 viewBox="0 0 20 20" style="enable-background:new 0 0 20 20;" xml:space="preserve">
<style type="text/css">
	.st0{fill:#FFFFFF;}
</style>
<path class="st0" d="M13.4,8.8H6.6c-0.5,0-1,0.4-1,1c0,0.5,0.4,1,1,1h6.8c0.5,0,1-0.4,1-1C14.4,9.2,13.9,8.8,13.4,8.8z M20,5.8
	C20,2.6,17.5,0,14.3,0v0h0H5.7v0l0,0c-1.5,0-3,0.6-4,1.7C0.6,2.8,0,4.2,0,5.8h0V19c0,0.3,0.2,0.7,0.5,0.8c0.3,0.2,0.7,0.2,1,0
	l4.5-2.5h8.4h0c1.5,0,3-0.6,4-1.7c1.1-1.1,1.7-2.5,1.6-4.1h0L20,5.8L20,5.8z M18.1,5.8v5.8v0c0,1-0.4,2-1.1,2.7
	c-0.7,0.7-1.7,1.1-2.7,1.1H5.7c-0.2,0-0.3,0-0.5,0.1l-3.3,1.8V5.8h0l0,0c0-1,0.4-2,1.1-2.7c0.7-0.7,1.7-1.1,2.7-1.1h8.6
	C16.4,2,18.1,3.7,18.1,5.8L18.1,5.8z M14.5,5.5h-9c-0.5,0-1,0.4-1,1s0.4,1,1,1h9c0.5,0,1-0.4,1-1S15.1,5.5,14.5,5.5z"/>
</svg>
