<?xml version="1.0" encoding="utf-8"?>
<!-- Generator: Adobe Illustrator 27.9.0, SVG Export Plug-In . SVG Version: 6.00 Build 0)  -->
<svg version="1.1" id="Слой_1" xmlns="http://www.w3.org/2000/svg" xmlns:xlink="http://www.w3.org/1999/xlink" x="0px" y="0px"
	 viewBox="0 0 20 20" style="enable-background:new 0 0 20 20;" xml:space="preserve">
<style type="text/css">
	.st0{fill:#FFFFFF;}
</style>
<g>
	<path class="st0" d="M9.7,12.9L5.6,3C5.4,2.5,5,2.2,4.5,2.3C4,2.3,3.6,2.6,3.4,3L0.1,13C0,13.3,0,13.6,0.1,13.9
		c0.1,0.3,0.4,0.5,0.7,0.6c0.1,0,0.2,0.1,0.4,0.1c0.5,0,0.9-0.3,1.1-0.8l0.9-2.5h3.3l1.1,2.6c0.2,0.6,0.9,0.9,1.5,0.6
		C9.6,14.2,9.9,13.5,9.7,12.9z M5.5,8.9H3.9l0.7-2.1L5.5,8.9z"/>
	<path class="st0" d="M18.8,9.5h-3.2V8.4c0-0.6-0.5-1.2-1.2-1.2c-0.6,0-1.2,0.5-1.2,1.2v1.1h-3.2C9.5,9.5,9,10,9,10.7
		c0,0.6,0.5,1.2,1.2,1.2h1.1c0,0,0,0,0,0c-0.3,0.1-0.5,0.3-0.7,0.6c-0.1,0.3-0.2,0.6-0.1,0.9c0.2,0.7,0.8,1.6,1.7,2.5
		c-0.8,0.6-1.6,1.1-2.4,1.4c-0.3,0.1-0.5,0.3-0.7,0.6S8.9,18.3,9,18.6c0.2,0.6,0.9,1,1.5,0.8c1.3-0.4,2.4-1.1,3.5-2
		c1.1,0.9,2.2,1.6,2.9,1.9c0.2,0.1,0.4,0.1,0.5,0.1c0.1,0,0.2,0,0.3-0.1c0.3-0.1,0.5-0.3,0.7-0.6c0.3-0.6,0.1-1.3-0.5-1.6
		c-0.5-0.3-1.4-0.9-2.4-1.6c0.1-0.1,0.1-0.2,0.2-0.3c0.8-1.1,1.4-2.4,1.8-3.5h1.3c0.6,0,1.2-0.5,1.2-1.2C20,10,19.5,9.5,18.8,9.5z
		 M13.9,14c0,0,0,0.1-0.1,0.1c-0.8-0.9-1-1.3-1.1-1.5c-0.1-0.3-0.3-0.5-0.6-0.7c-0.1,0-0.2-0.1-0.2-0.1h3.2
		C14.8,12.6,14.4,13.3,13.9,14z"/>
</g>
</svg>
