<?xml version="1.0" encoding="utf-8"?>
<!-- Generator: Adobe Illustrator 27.9.0, SVG Export Plug-In . SVG Version: 6.00 Build 0)  -->
<svg version="1.1" id="Слой_1" xmlns="http://www.w3.org/2000/svg" xmlns:xlink="http://www.w3.org/1999/xlink" x="0px" y="0px"
	 viewBox="0 0 20 20" style="enable-background:new 0 0 20 20;" xml:space="preserve">
<style type="text/css">
	.st0{fill-rule:evenodd;clip-rule:evenodd;fill:#FFFFFF;}
</style>
<path id="路径" class="st0" d="M15,2l-3.4,3.2l0.9,2.4l2.4,0.9L18,5c0.6-0.6,1.6-0.4,1.8,0.4c0.6,2.4,0,5.1-1.9,6.9
	c-2.1,2.1-5.2,2.6-7.8,1.6l-4,4.8c-1.3,1.5-3.6,1.6-5,0.2c-1.4-1.4-1.3-3.7,0.2-5l4.8-4C5,7.3,5.5,4.2,7.6,2.1
	c1.9-1.9,4.5-2.5,6.9-1.9C15.4,0.4,15.6,1.5,15,2z"/>
</svg>
