<?xml version="1.0" encoding="utf-8"?>
<!-- Generator: Adobe Illustrator 27.9.0, SVG Export Plug-In . SVG Version: 6.00 Build 0)  -->
<svg version="1.1" id="Capa_1" xmlns="http://www.w3.org/2000/svg" xmlns:xlink="http://www.w3.org/1999/xlink" x="0px" y="0px"
	 width="130px" height="130px" viewBox="0 0 130 130" style="enable-background:new 0 0 130 130;" xml:space="preserve">
<style type="text/css">
	.st0{fill:#FFFFFF;}
</style>
<g>
	<g>
		<g>
			<path class="st0" d="M87.6,109c-0.7-0.4-1.3-1-1.7-1.6c-0.2-0.3-0.4-0.6-0.6-1H8.7V31h103.9v49.2c2.2,0.2,4.1,1.7,4.9,3.7
				c0.7-0.4,1.4-0.6,2.3-0.7c0.6,0,1.1,0,1.6,0.1V12.2c0-4-3.3-7.3-7.3-7.3H7.3c-4,0-7.3,3.3-7.3,7.3v95.7c0,4,3.3,7.3,7.3,7.3h79.6
				c-0.6-1.3-0.8-2.7-0.4-4.1C86.7,110.4,87.1,109.7,87.6,109z M104.6,17.2c0-1.5,1.2-2.7,2.7-2.7h2.7c1.5,0,2.7,1.2,2.7,2.7v3.1
				c0,1.5-1.2,2.7-2.7,2.7h-2.7c-1.5,0-2.7-1.2-2.7-2.7V17.2z M92.1,17.2c0-1.5,1.2-2.7,2.7-2.7h2.7c1.5,0,2.7,1.2,2.7,2.7v3.1
				c0,1.5-1.2,2.7-2.7,2.7h-2.7c-1.5,0-2.7-1.2-2.7-2.7V17.2z M79.6,17.2c0-1.5,1.2-2.7,2.7-2.7h2.7c1.5,0,2.7,1.2,2.7,2.7v3.1
				c0,1.5-1.2,2.7-2.7,2.7h-2.7c-1.5,0-2.7-1.2-2.7-2.7V17.2z"/>
			<path class="st0" d="M130,103.9l-0.8-4.6c-0.1-0.6-0.7-1-1.3-0.9l-4.1,0.7c-0.5-1.2-1.1-2.2-1.9-3.2l2.7-3.2
				c0.2-0.2,0.3-0.5,0.2-0.8c0-0.3-0.2-0.6-0.4-0.8l-3.6-3c-0.2-0.2-0.5-0.3-0.8-0.2c-0.3,0-0.6,0.2-0.8,0.4l-2.7,3.2
				c-1.1-0.6-2.3-1-3.5-1.3V86c0-0.6-0.5-1.1-1.1-1.1h-4.7c-0.6,0-1.1,0.5-1.1,1.1v4.2c-1.2,0.3-2.4,0.7-3.5,1.3l-2.7-3.2
				c-0.4-0.5-1.1-0.5-1.6-0.1l-3.6,3c-0.2,0.2-0.4,0.5-0.4,0.8c0,0.3,0.1,0.6,0.2,0.8l2.7,3.2c-0.7,1-1.4,2-1.9,3.2l-4.1-0.7
				c-0.6-0.1-1.2,0.3-1.3,0.9l-0.8,4.6c0,0.3,0,0.6,0.2,0.8c0.2,0.2,0.4,0.4,0.7,0.5l4.1,0.7c0.1,1.3,0.3,2.5,0.6,3.7l-3.6,2.1
				c-0.2,0.1-0.5,0.4-0.5,0.7c-0.1,0.3,0,0.6,0.1,0.8l2.3,4c0.1,0.2,0.4,0.5,0.7,0.5c0.1,0,0.2,0,0.3,0c0.2,0,0.4,0,0.6-0.1l3.6-2.1
				c0.8,0.9,1.8,1.7,2.9,2.4l-1.4,3.9c-0.1,0.3-0.1,0.6,0,0.9c0.1,0.3,0.4,0.5,0.6,0.6l4.4,1.6c0.1,0,0.2,0.1,0.4,0.1
				c0.2,0,0.3,0,0.5-0.1c0.3-0.1,0.5-0.4,0.6-0.6l1.4-3.9c0.6,0.1,1.2,0.1,1.9,0.1s1.2,0,1.9-0.1l1.4,3.9c0.1,0.3,0.3,0.5,0.6,0.6
				c0.1,0.1,0.3,0.1,0.5,0.1c0.1,0,0.2,0,0.4-0.1l4.4-1.6c0.3-0.1,0.5-0.3,0.6-0.6c0.1-0.3,0.1-0.6,0-0.9l-1.4-3.9
				c1.1-0.7,2-1.5,2.9-2.4l3.6,2.1c0.2,0.1,0.4,0.1,0.6,0.1c0.1,0,0.2,0,0.3,0c0.3-0.1,0.5-0.3,0.7-0.5l2.3-4
				c0.1-0.2,0.2-0.6,0.1-0.8s-0.3-0.5-0.5-0.7l-3.6-2.1c0.4-1.2,0.6-2.4,0.6-3.7l4.1-0.7c0.3,0,0.6-0.2,0.7-0.5
				C130,104.5,130,104.2,130,103.9z M109.6,111.2c-3.5,0-6.2-2.8-6.2-6.2c0-3.5,2.8-6.2,6.2-6.2s6.2,2.8,6.2,6.2
				C115.9,108.4,113.1,111.2,109.6,111.2z"/>
			<g>
				<path class="st0" d="M51,72.8c0-1.5-0.8-2.8-2.2-3.5l-12.2-5.7L48.8,58c1.3-0.6,2.2-2,2.2-3.5v-0.1c0-1.3-0.7-2.5-1.8-3.2
					c-0.6-0.4-1.3-0.6-2-0.6c-0.6,0-1.1,0.1-1.6,0.4L26,60c-1.3,0.6-2.2,2-2.2,3.5v0.3c0,1.5,0.8,2.8,2.2,3.5l19.5,9.1
					c0.5,0.2,1.1,0.4,1.6,0.4c0.7,0,1.4-0.2,2-0.6C50.3,75.4,51,74.2,51,72.8L51,72.8L51,72.8z"/>
				<path class="st0" d="M70.2,41.5c-0.7-1-1.9-1.6-3.1-1.6h-0.1c-1.7,0-3.1,1.1-3.6,2.6L50.6,82.4c-0.4,1.2-0.2,2.4,0.6,3.4
					c0.7,1,1.9,1.6,3.1,1.6h0.1c1.7,0,3.1-1.1,3.6-2.6l12.9-39.9C71.2,43.7,71,42.4,70.2,41.5z"/>
				<path class="st0" d="M95.4,60.1l-19.5-9.1c-0.5-0.2-1.1-0.4-1.6-0.4c-0.7,0-1.4,0.2-2,0.6c-1.1,0.7-1.8,1.9-1.8,3.2v0.1
					c0,1.5,0.8,2.8,2.2,3.5l12.2,5.7l-12.2,5.7c-1.3,0.6-2.2,2-2.2,3.5V73c0,1.3,0.7,2.5,1.8,3.2c0.6,0.4,1.3,0.6,2,0.6
					c0.6,0,1.1-0.1,1.6-0.4l19.5-9.1c1.3-0.6,2.2-2,2.2-3.5v-0.3C97.5,62.1,96.7,60.7,95.4,60.1z"/>
			</g>
		</g>
	</g>
</g>
</svg>
