<?xml version="1.0" encoding="utf-8"?>
<!-- Generator: Adobe Illustrator 27.9.0, SVG Export Plug-In . SVG Version: 6.00 Build 0)  -->
<svg version="1.1" id="Слой_1" xmlns="http://www.w3.org/2000/svg" xmlns:xlink="http://www.w3.org/1999/xlink" x="0px" y="0px"
	 width="25px" height="25px" viewBox="0 0 25 25" style="enable-background:new 0 0 25 25;" xml:space="preserve">
<style type="text/css">
	.st0{fill:#B60E0C;}
</style>
<g>
	<path class="st0" d="M12.5,1.2C6.3,1.2,1.2,6.3,1.2,12.5c0,6.2,5.1,11.3,11.3,11.3c6.2,0,11.3-5.1,11.3-11.3
		C23.8,6.3,18.7,1.2,12.5,1.2z M12.5,21.8c-5.1,0-9.3-4.2-9.3-9.3c0-5.1,4.2-9.3,9.3-9.3c5.1,0,9.3,4.2,9.3,9.3
		C21.8,17.6,17.6,21.8,12.5,21.8z"/>
	<path class="st0" d="M15.8,9.2c-0.4-0.4-1-0.4-1.4,0l-1.8,1.8l-1.8-1.8c-0.4-0.4-1-0.4-1.4,0c-0.4,0.4-0.4,1,0,1.4l1.8,1.8
		l-1.8,1.8c-0.4,0.4-0.4,1,0,1.4c0.2,0.2,0.5,0.3,0.7,0.3s0.5-0.1,0.7-0.3l1.8-1.8l1.8,1.8c0.2,0.2,0.5,0.3,0.7,0.3s0.5-0.1,0.7-0.3
		c0.4-0.4,0.4-1,0-1.4l-1.8-1.8l1.8-1.8C16.2,10.3,16.2,9.6,15.8,9.2z"/>
</g>
</svg>
