<?xml version="1.0" encoding="utf-8"?>
<!-- Generator: Adobe Illustrator 27.9.0, SVG Export Plug-In . SVG Version: 6.00 Build 0)  -->
<svg version="1.1" id="Слой_1" xmlns="http://www.w3.org/2000/svg" xmlns:xlink="http://www.w3.org/1999/xlink" x="0px" y="0px"
	 width="25px" height="25px" viewBox="0 0 25 25" style="enable-background:new 0 0 25 25;" xml:space="preserve">
<style type="text/css">
	.st0{fill:#009540;}
</style>
<g>
	<path class="st0" d="M20,15.1c-0.6,0-1.1,0.5-1.1,1.1V20c0,0.4-0.3,0.7-0.7,0.7H5c-0.4,0-0.7-0.3-0.7-0.7V6.9
		c0-0.4,0.3-0.7,0.7-0.7h3.8c0.6,0,1.1-0.5,1.1-1.1S9.4,3.8,8.7,3.8H5c-1.7,0-3,1.4-3,3V20c0,1.7,1.4,3,3,3h13.2c1.7,0,3-1.4,3-3
		v-3.8C21.2,15.6,20.7,15.1,20,15.1z"/>
	<path class="st0" d="M22.7,6.2l-4-4c-0.4-0.4-1.2-0.4-1.6,0l-8.9,8.9C8,11.4,7.9,11.7,7.9,12l-0.3,4.2c0,0.3,0.1,0.6,0.3,0.9
		c0.2,0.2,0.5,0.3,0.8,0.3c0,0,0,0,0.1,0l4.2-0.2c0.3,0,0.6-0.1,0.8-0.3l8.9-9C23.2,7.4,23.2,6.7,22.7,6.2z M12.5,15L10,15.1
		l0.2-2.5L18,4.7L20.3,7L12.5,15z"/>
</g>
</svg>
