<?xml version="1.0" encoding="utf-8"?>
<!-- Generator: Adobe Illustrator 27.9.0, SVG Export Plug-In . SVG Version: 6.00 Build 0)  -->
<svg version="1.1" id="Слой_1" xmlns="http://www.w3.org/2000/svg" xmlns:xlink="http://www.w3.org/1999/xlink" x="0px" y="0px"
	 width="25px" height="25px" viewBox="0 0 25 25" style="enable-background:new 0 0 25 25;" xml:space="preserve">
<style type="text/css">
	.st0{fill:#575756;}
</style>
<g>
	<path class="st0" d="M12.6,10.3c-0.5,0-1,0.4-1,1v3.5c0,0.5,0.4,1,1,1s1-0.4,1-1v-3.5C13.6,10.8,13.2,10.3,12.6,10.3z"/>
	<path class="st0" d="M13.6,5.8c0-0.1,0-0.2,0-0.2V2.1h2.3c0.5,0,1-0.4,1-1S16.4,0,15.9,0H9.3c-0.5,0-1,0.5-1,1.1s0.4,1,1,1h2.3v3.4
		c0,0.1,0,0.2,0,0.2c-4.9,0.4-8.8,4.6-8.8,9.7c0,5.3,4.3,9.7,9.7,9.7s9.7-4.3,9.7-9.7C22.3,10.3,18.5,6.2,13.6,5.8z M12.6,23
		c-4.2,0-7.7-3.5-7.7-7.7s3.5-7.7,7.7-7.7s7.7,3.5,7.7,7.7S16.8,23,12.6,23z"/>
</g>
</svg>
