<?xml version="1.0" encoding="utf-8"?>
<!-- Generator: Adobe Illustrator 27.9.0, SVG Export Plug-In . SVG Version: 6.00 Build 0)  -->
<svg version="1.1" id="Слой_1" xmlns="http://www.w3.org/2000/svg" xmlns:xlink="http://www.w3.org/1999/xlink" x="0px" y="0px"
	 width="25px" height="25px" viewBox="0 0 25 25" style="enable-background:new 0 0 25 25;" xml:space="preserve">
<style type="text/css">
	.st0{fill:#473D8B;}
</style>
<g>
	<path class="st0" d="M19.1,13.6c-0.5,0-0.9,0.4-0.9,0.9c0,3.2-2.6,5.8-5.8,5.8s-5.8-2.6-5.8-5.8s2.6-5.8,5.8-5.8
		c0.5,0,0.9-0.4,0.9-0.9S13,7,12.5,7C8.4,7,5,10.4,5,14.5S8.4,22,12.5,22s7.5-3.4,7.5-7.5C20,14,19.6,13.6,19.1,13.6z"/>
	<path class="st0" d="M14.6,7.9l-3.4,3.4c-0.3,0.3-0.3,0.9,0,1.2c0.2,0.2,0.4,0.3,0.6,0.3s0.4-0.1,0.6-0.3l4-4
		c0.3-0.3,0.3-0.9,0-1.2l-4-4c-0.3-0.3-0.9-0.3-1.2,0s-0.3,0.9,0,1.2L14.6,7.9z"/>
</g>
</svg>
