<?xml version="1.0" encoding="utf-8"?>
<!-- Generator: Adobe Illustrator 27.9.0, SVG Export Plug-In . SVG Version: 6.00 Build 0)  -->
<svg version="1.1" id="Слой_1" xmlns="http://www.w3.org/2000/svg" xmlns:xlink="http://www.w3.org/1999/xlink" x="0px" y="0px"
	 width="25px" height="25px" viewBox="0 0 25 25" style="enable-background:new 0 0 25 25;" xml:space="preserve">
<style type="text/css">
	.st0{fill:#473D8B;}
</style>
<path class="st0" d="M13.5,12H6.3c-0.4,0-0.8,0.3-0.8,0.8s0.3,0.8,0.8,0.8h7.2c0.4,0,0.8-0.3,0.8-0.8S14,12,13.5,12z M13.5,17.2H4.2
	c-0.4,0-0.8,0.3-0.8,0.8c0,0.4,0.3,0.8,0.8,0.8h9.3c0.4,0,0.8-0.3,0.8-0.8C14.3,17.5,14,17.2,13.5,17.2z M21.2,17.4
	c-0.3-0.3-0.8-0.2-1.1,0.2l-1.7,2.3V5.6c0-0.4-0.3-0.8-0.8-0.8c-0.4,0-0.8,0.3-0.8,0.8v16.6c0,0.3,0.2,0.6,0.5,0.7
	c0.3,0.1,0.7,0,0.9-0.3l3.1-4.1C21.7,18.1,21.6,17.6,21.2,17.4z M13.5,6.8H8.4c-0.4,0-0.8,0.3-0.8,0.8s0.3,0.8,0.8,0.8h5.2
	c0.4,0,0.8-0.3,0.8-0.8S14,6.8,13.5,6.8z"/>
</svg>
